<?xml version="1.0" encoding="UTF-8"?>
<svg id="Layer_1" xmlns="http://www.w3.org/2000/svg" version="1.1" viewBox="0 0 640 640">
  <!-- Generator: Adobe Illustrator 29.1.0, SVG Export Plug-In . SVG Version: 2.1.0 Build 142)  -->
  <defs>
    <style>
      .st0 {
        fill: #233041;
      }
    </style>
  </defs>
  <path class="st0" d="M286.3,269.6c-18.7,11.7-29.5,32.8-28.4,54.8,1.3,22.1,14.5,41.7,34.3,51.4,19.9,9.6,43.5,7.5,61.5-5.2,18.7-11.7,29.5-32.8,28.4-54.8-1.3-22.1-14.5-41.7-34.3-51.4-19.9-9.6-43.5-7.5-61.5,5.2ZM448.3,191.7c-5.9-5.9-13.1-10.6-21-13.7-20.6-8.1-65.6-7.7-94.6-7.4h-25.7c-29-.3-73.8-.8-94.4,7.4-7.9,3.1-14.9,7.7-21,13.7s-10.6,13.1-13.7,21c-8.1,20.6-7.6,65.7-7.4,94.7v25.3c-.2,29-.7,74.1,7.4,94.7,3.1,7.9,7.7,14.9,13.7,21,5.9,6,13.1,10.6,21,13.7,20.6,8.1,65.6,7.7,94.6,7.4,4.7,0,9-.1,12.8-.1s8.2,0,13,.1c29,.3,73.8.8,94.4-7.4,7.9-3.1,14.9-7.7,21-13.7s10.6-13.1,13.7-21c8.2-20.5,7.7-65.4,7.4-94.5,0-4.8-.1-9.2-.1-13s0-8.1.1-13c.3-29,.8-73.9-7.4-94.5-3.1-7.9-7.7-14.9-13.7-21v.2ZM371.9,242.3c20.6,13.8,34.8,35.2,39.7,59.4,4.9,24.3-.2,49.5-14,70.1-6.8,10.2-15.6,18.9-25.7,25.7-10.1,6.8-21.6,11.5-33.7,13.9-24.3,4.8-49.5-.2-70.1-14-20.6-13.8-34.8-35.2-39.7-59.4-4.9-24.3.2-49.5,13.9-70.1,13.7-20.6,35.2-34.8,59.4-39.7,24.3-4.9,49.5.2,70.1,13.9h.1v.2h0ZM405.2,240.9c-3.5-2.4-6.4-5.8-8.1-9.8s-2-8.3-1.3-12.6c.8-4.3,3-8.1,5.9-11.2s6.9-5.1,11.2-5.9c4.2-.8,8.7-.5,12.6,1.3s7.4,4.4,9.8,8,3.6,7.7,3.6,12.1-.6,5.7-1.6,8.3-2.7,5-4.7,7.1-4.4,3.6-7.1,4.8c-2.6,1.1-5.5,1.7-8.3,1.7-4.3,0-8.5-1.3-12.1-3.6h-.1ZM575,137.8c0-40.2-32.7-72.9-72.9-72.9H137.8c-40.2,0-72.9,32.7-72.9,72.9v364.4c0,40.2,32.7,72.9,72.9,72.9h364.4c40.2,0,72.9-32.7,72.9-72.9V137.8ZM471.4,471.4c-21.3,21.3-47.1,28-76.3,29.5-30.1,1.7-120.2,1.7-150.3,0-29.1-1.5-55-8.2-76.3-29.5-21.3-21.3-28-47.1-29.4-76.3-1.7-30.1-1.7-120.2,0-150.3,1.5-29.1,8.1-55,29.4-76.3,21.3-21.3,47.3-28,76.3-29.4,30.1-1.7,120.2-1.7,150.3,0,29.1,1.5,55,8.1,76.3,29.4,21.3,21.3,28,47.1,29.4,76.3,1.7,29.9,1.7,120,0,150.2-1.5,29.1-8.1,55-29.4,76.3h0Z"/>
</svg>