<?xml version="1.0" encoding="UTF-8"?>
<svg id="Layer_1" xmlns="http://www.w3.org/2000/svg" version="1.1" viewBox="0 0 288 312.48">
  <!-- Generator: Adobe Illustrator 29.1.0, SVG Export Plug-In . SVG Version: 2.1.0 Build 142)  -->
  <defs>
    <style>
      .st0 {
        fill: #233041;
      }
    </style>
  </defs>
  <path class="st0" d="M158.66,148.86c-.36,0-.66.29-.66.66v19.76c0,.36.3.66.66.66h10.6c.36,0,.66-.3.66-.66v-1.34c0-.36-.3-.66-.66-.66h-8.04v-6.66h7.12c.36,0,.66-.3.66-.66v-1.34c0-.36-.3-.66-.66-.66h-7.12v-6.45h8.04c.36,0,.66-.29.66-.66v-1.34c0-.36-.3-.66-.66-.66h-10.6ZM180.72,247.14h3.87c1.2,0,2.18-.98,2.18-2.18v-49.66h14.18c1.2,0,2.18-.98,2.18-2.18v-2.21c0-1.2-.98-2.18-2.18-2.18h-36.75c-1.2,0-2.18.98-2.18,2.18v2.21c0,1.2.98,2.18,2.18,2.18h14.35v49.66c0,1.2.98,2.18,2.18,2.18ZM124.61,169.95h1.93c.36,0,.66-.3.66-.66v-17.76h5.15c.36,0,.66-.29.66-.66v-1.34c0-.36-.3-.66-.66-.66h-13.62c-.36,0-.66.29-.66.66v1.34c0,.36.3.66.66.66h5.22v17.76c0,.36.3.66.66.66ZM2.18,247.14h3.78c1.2,0,2.18-.98,2.18-2.18v-21.22h11.38c.93,0,1.89-.04,3.02-.13l.27-.02,14.95,22.79c.32.49.81.82,1.38.94.57.12,1.15,0,1.64-.31l3.13-2.05c1.01-.66,1.29-2.01.63-3.02l-13.39-20.41.46-.23c2.96-1.51,5.21-3.52,6.68-5.97,1.53-2.56,2.31-5.51,2.31-8.76v-.31s0-.32,0-.32c0-3.25-.78-6.2-2.31-8.76-1.54-2.56-3.89-4.63-6.98-6.14-3.09-1.52-7.06-2.28-11.78-2.28h-10.83c-.3-.03-.52-.04-.69-.04l-5.83.04c-1.2,0-2.18.98-2.18,2.18v54.05c0,1.2.98,2.18,2.18,2.18ZM8.14,195.34h11.46c4.21,0,7.4,1.08,9.47,3.19,2,2.05,3.05,4.64,3.1,7.69-.05,3.07-1.1,5.66-3.1,7.71-.4.41-.89.8-1.55,1.23l-.38.25-4.12-6.28c-.32-.49-.81-.82-1.38-.94-.57-.12-1.15,0-1.64.31l-3.14,2.06c-1,.66-1.29,2.01-.63,3.02l2.33,3.55h-10.43v-21.79ZM150.75,169.95h1.9c.36,0,.66-.3.66-.66v-19.76c0-.36-.3-.66-.66-.66h-1.9c-.36,0-.66.29-.66.66v8.39h-10.47v-8.39c0-.36-.3-.66-.66-.66h-1.9c-.36,0-.66.29-.66.66v19.76c0,.36.3.66.66.66h1.9c.36,0,.66-.3.66-.66v-8.72h10.47v8.72c0,.36.3.66.66.66ZM206.64,288.01l.45-.23c2.76-1.41,4.86-3.28,6.23-5.57,1.43-2.38,2.16-5.13,2.16-8.17v-.29s0-.3,0-.3c0-3.04-.73-5.79-2.16-8.17-1.43-2.39-3.62-4.32-6.51-5.73-2.89-1.41-6.59-2.13-11-2.13h-10.11c-.28-.02-.49-.04-.64-.04l-5.27.04c-1.2,0-2.18.98-2.18,2.18v50.14c0,1.2.98,2.18,2.18,2.18h3.19c1.2,0,2.18-.98,2.18-2.18v-19.68h10.66c.88,0,1.8-.04,2.82-.12l.27-.02,13.88,21.16c.66,1,2.02,1.28,3.02.63l2.64-1.73c1.01-.66,1.29-2.01.63-3.02l-12.43-18.95ZM203.32,282.11l-.38.25-3.77-5.75c-.32-.49-.81-.82-1.38-.94-.57-.12-1.15,0-1.64.31l-2.64,1.73c-1,.66-1.29,2.01-.63,3.02l2.11,3.22h-9.83v-20.42h10.74c3.94,0,6.93,1.01,8.87,2.99,1.88,1.92,2.85,4.35,2.9,7.21-.05,2.88-1.03,5.3-2.9,7.22-.37.38-.84.75-1.45,1.15ZM285.82,257.42h-4.5c-.85,0-1.62.5-1.98,1.27l-20.05,43.43-19.97-43.42c-.35-.77-1.13-1.27-1.98-1.27h-4.5c-1.2,0-2.18.98-2.18,2.18v50.14c0,1.2.98,2.18,2.18,2.18h3.19c1.2,0,2.18-.98,2.18-2.18v-37.8l17.86,38.71c.36.77,1.13,1.27,1.98,1.27h2.58c.85,0,1.63-.5,1.98-1.27l17.78-38.69v37.78c0,1.2.98,2.18,2.18,2.18h3.27c1.2,0,2.18-.98,2.18-2.18v-50.14c0-1.2-.98-2.18-2.18-2.18ZM148.23,258.84c-.32-.85-1.14-1.41-2.04-1.41h-5.6c-.9,0-1.72.57-2.04,1.41l-18.81,50.15c-.25.68-.16,1.41.25,2.01.41.6,1.07.94,1.79.94h3.29c.91,0,1.73-.57,2.05-1.43l3.93-10.66h24.58l3.93,10.66c.31.85,1.14,1.43,2.05,1.43h3.37c.73,0,1.38-.34,1.79-.94.41-.6.51-1.33.25-2.01l-18.81-50.15ZM133.3,293.77l10.05-27.23,10.05,27.23h-20.1ZM238.73,239.37c2.77,2.63,6.02,4.71,9.65,6.16,3.64,1.46,7.61,2.19,11.82,2.19s8.32-.74,12.03-2.19c.57-.22,1.12-.46,1.66-.72.55-.26.95-.74,1.12-1.34.17-.62.07-1.27-.28-1.81l-1.64-2.5c-.6-.92-1.81-1.24-2.8-.74-3.05,1.53-6.45,2.31-10.09,2.31-4.17,0-7.95-.94-11.23-2.8-3.28-1.86-5.9-4.52-7.78-7.93-1.88-3.41-2.84-7.47-2.84-12.08s.97-8.74,2.88-12.12c1.91-3.37,4.56-6.03,7.87-7.89,3.31-1.86,7.07-2.8,11.19-2.8,4.61,0,8.77,1.24,12.37,3.7,3.41,2.33,5.68,6.47,6.73,8.74.45.96,1.57,1.46,2.59,1.15l3.69-1.11c.6-.18,1.08-.59,1.34-1.16.26-.56.28-1.2.04-1.77-.98-2.34-2.66-5.64-5.15-8.03-3.04-2.94-6.19-5.01-9.62-6.34-3.69-1.43-7.75-2.15-12.08-2.15s-8.19.74-11.82,2.19c-3.63,1.45-6.88,3.53-9.65,6.16-2.77,2.64-4.95,5.8-6.48,9.41-1.53,3.61-2.31,7.66-2.31,12.03s.78,8.35,2.3,11.98c1.53,3.64,3.71,6.82,6.48,9.46ZM218.42,188.73h-3.78c-1.2,0-2.18.98-2.18,2.18v54.05c0,1.2.98,2.18,2.18,2.18h3.78c1.2,0,2.18-.98,2.18-2.18v-54.05c0-1.2-.98-2.18-2.18-2.18ZM133.23,247.73c4.39,0,8.12-.78,11.09-2.33,2.98-1.54,5.26-3.6,6.8-6.14,1.54-2.53,2.31-5.21,2.31-7.97,0-3.09-.6-5.65-1.79-7.63-1.19-1.97-2.78-3.56-4.72-4.71-1.93-1.15-4.08-2.1-6.39-2.82-2.32-.73-4.65-1.38-6.93-1.94-2.27-.55-4.41-1.21-6.34-1.97-1.91-.75-3.46-1.78-4.62-3.07-1.16-1.28-1.74-2.99-1.74-5.08s.51-3.8,1.53-5.08c1.02-1.29,2.41-2.28,4.14-2.94,1.74-.66,3.69-1,5.8-1,3.11,0,5.71.93,7.75,2.75,2.07,1.85,3.11,4.01,3.61,5.5.37,1.09,1.48,1.7,2.59,1.42l4.08-1.02c.6-.15,1.1-.53,1.39-1.08.29-.54.35-1.15.15-1.73-.6-1.78-1.51-3.5-2.69-5.1-1.65-2.23-3.95-4.09-6.84-5.53-2.8-1.4-6.07-2.12-9.71-2.12-3.98,0-7.52.67-10.53,1.98-3.01,1.32-5.38,3.22-7.06,5.63-1.68,2.42-2.53,5.3-2.53,8.56,0,3.09.6,5.66,1.79,7.63,1.19,1.97,2.78,3.56,4.72,4.71,1.94,1.15,4.1,2.07,6.44,2.74,2.35.68,4.7,1.3,6.97,1.85,2.28.55,4.41,1.23,6.34,2.01,1.9.77,3.46,1.82,4.63,3.12,1.16,1.28,1.74,3.05,1.74,5.24,0,2.73-1.02,4.88-3.11,6.58-2.07,1.68-5.06,2.53-8.87,2.53-3.49,0-6.43-1.03-8.73-3.07-2.21-1.95-3.34-4.78-3.9-6.8-.27-.96-1.13-1.6-2.1-1.6-.12,0-.25,0-.37.03l-4.37.75c-.6.1-1.11.44-1.45.94-.34.51-.45,1.12-.31,1.72.43,1.85,1.32,4.55,3.11,6.88,2.03,2.64,4.57,4.67,7.54,6.01,3.09,1.4,6.64,2.11,10.57,2.11ZM106.91,257.42h-3.18c-1.2,0-2.18.98-2.18,2.18v21.6h-28.43v-21.6c0-1.2-.98-2.18-2.18-2.18h-3.19c-1.2,0-2.18.98-2.18,2.18v50.14c0,1.2.98,2.18,2.18,2.18h3.19c1.2,0,2.18-.98,2.18-2.18v-22.47h28.43v22.47c0,1.2.98,2.18,2.18,2.18h3.18c1.2,0,2.18-.98,2.18-2.18v-50.14c0-1.2-.98-2.18-2.18-2.18ZM48.46,264.79c-2.43-2.56-5.45-4.55-8.96-5.91-3.45-1.33-7.24-2.01-11.27-2.01s-7.64.69-11.03,2.05c-3.39,1.36-6.42,3.29-9.01,5.75-2.59,2.46-4.62,5.41-6.04,8.78-1.43,3.37-2.15,7.15-2.15,11.22s.72,7.79,2.15,11.18c1.43,3.4,3.46,6.37,6.05,8.82,2.58,2.46,5.61,4.39,9,5.75,3.39,1.36,7.11,2.05,11.03,2.05s7.76-.69,11.23-2.05c.47-.18.93-.38,1.37-.59.55-.26.95-.72,1.12-1.32.18-.62.08-1.28-.28-1.82l-1.34-2.05c-.6-.91-1.79-1.24-2.76-.75-2.83,1.4-5.97,2.11-9.34,2.11-3.9,0-7.43-.88-10.51-2.62-3.07-1.74-5.52-4.23-7.28-7.42-1.76-3.19-2.66-6.99-2.66-11.3s.91-8.18,2.7-11.34c1.79-3.16,4.27-5.64,7.36-7.38,3.09-1.74,6.61-2.62,10.46-2.62,4.44,0,8.34,1.17,11.57,3.47,3.18,2.25,5.16,5.59,6.26,7.98.45.99,1.57,1.5,2.61,1.18l3.1-.93c.6-.18,1.08-.6,1.35-1.17.26-.57.27-1.22.02-1.8-.82-1.91-2.32-4.73-4.75-7.29ZM88.2,245.36c3.47-1.57,6.28-4.05,8.36-7.36,2.08-3.31,3.14-7.55,3.14-12.59v-34.5c0-1.2-.98-2.18-2.18-2.18h-3.87c-1.2,0-2.18.98-2.18,2.18v34.59c0,5.31-1.34,9.21-3.98,11.58-2.64,2.37-6.24,3.58-10.69,3.58s-7.97-1.2-10.64-3.58c-2.67-2.37-4.02-6.27-4.02-11.58v-34.59c0-1.2-.98-2.18-2.18-2.18h-3.78c-1.2,0-2.18.98-2.18,2.18v34.5c0,5.04,1.03,9.28,3.05,12.59,2.02,3.32,4.8,5.79,8.24,7.37,3.43,1.57,7.28,2.36,11.44,2.36s8.02-.8,11.48-2.36ZM83.42,73.24v1.69c0,1.45,1.19,2.64,2.64,2.64h17.45c1.45,0,1.8.84.77,1.87l-60.1,60.09c-1.03,1.03-1.03,2.71,0,3.73l1.19,1.2c1.02,1.03,2.7,1.03,3.73,0l62.43-62.42c1.03-1.03,2.71-1.03,3.73,0l21.95,21.95c1.03,1.03,1.03,2.71,0,3.73l-17.72,17.72c-1.03,1.03-1.03,2.71,0,3.73l1.19,1.19c1.03,1.03,2.7,1.03,3.73,0l5.4-5.4c1.03-1.03,1.86-1.87,1.86-1.87,0,0,.82-.85,1.85-1.88,0,0,4.73-4.73,8.38-8.38.61-.61,1.41-.89,2.2-.86.79-.03,1.6.26,2.2.86,3.65,3.65,8.38,8.38,8.38,8.38,1.03,1.03,1.85,1.88,1.85,1.88,0,0,.83.85,1.86,1.87l5.4,5.4c1.03,1.03,2.71,1.03,3.73,0l1.19-1.19c1.03-1.03,1.02-2.71,0-3.73l-17.72-17.72c-1.03-1.03-1.03-2.71,0-3.73l21.95-21.95c1.03-1.03,2.71-1.03,3.73,0l62.43,62.42c1.03,1.03,2.7,1.02,3.73,0l1.19-1.2c1.02-1.03,1.02-2.71,0-3.73l-60.1-60.09c-1.03-1.03-.68-1.87.77-1.87h17.45c1.45,0,2.64-1.19,2.64-2.64v-1.69c0-1.45-1.19-2.64-2.64-2.64h-20.05c-1.45,0-2.64-1.19-2.64-2.64v-20.05c0-1.45-1.19-2.64-2.64-2.64h-1.69c-1.45,0-2.64,1.19-2.64,2.64v17.45c0,1.45-.84,1.8-1.87.77l-24.42-24.42s-.06-.05-.09-.07c-1.01-.91-2.48-1.02-3.6-.32-.18.11-.35.23-.5.39l-24.42,24.42c-1.03,1.03-1.87.68-1.87-.77v-17.45c0-1.45-1.19-2.64-2.64-2.64h-1.69c-1.45,0-2.64,1.19-2.64,2.64v20.05c0,1.45-1.19,2.64-2.64,2.64h-20.05c-1.45,0-2.64,1.19-2.64,2.64ZM120.3,73.12l21.68-21.68c1.17-1.17,3.06-1.17,4.22,0l21.68,21.68c1.17,1.17,1.17,3.06,0,4.22l-21.68,21.68c-1.17,1.17-3.06,1.17-4.22,0l-21.68-21.68c-1.17-1.17-1.17-3.06,0-4.22ZM205.3,47.38h27.02c1.45,0,2.64-1.19,2.64-2.64v-1.69c0-1.45-1.19-2.64-2.64-2.64h-20.05c-1.45,0-2.64-1.19-2.64-2.64v-20.05c0-1.45-1.19-2.64-2.64-2.64h-1.69c-1.45,0-2.64,1.19-2.64,2.64v27.02c0,1.45,1.19,2.64,2.64,2.64ZM235.3,17.2c1.35,0,3.3-.84,4.33-1.87l8.77-8.77c1.03-1.03,1.03-2.71,0-3.73l-1.19-1.19c-1.03-1.03-2.71-1.03-3.73,0l-8.77,8.77c-1.03,1.03-1.87,2.97-1.87,4.33s1.11,2.46,2.46,2.46ZM190.21,62.48h27.01c1.45,0,2.64-1.19,2.64-2.64v-1.69c0-1.45-1.19-2.64-2.64-2.64h-20.05c-1.45,0-2.64-1.19-2.64-2.64v-20.05c0-1.45-1.19-2.64-2.64-2.64h-1.69c-1.45,0-2.64,1.19-2.64,2.64v27.02c0,1.45,1.19,2.64,2.64,2.64ZM217.75,29.65c0,1.45,1.19,2.64,2.64,2.64h27.01c1.45,0,2.64-1.19,2.64-2.64v-1.69c0-1.45-1.19-2.64-2.64-2.64h-20.05c-1.45,0-2.64-1.19-2.64-2.64V2.64c0-1.45-1.19-2.64-2.64-2.64h-1.69c-1.45,0-2.64,1.19-2.64,2.64v19.14c0,1.45,0,3.83,0,5.28v2.6ZM98.3,131.4c1.02,1.03,2.7,1.03,3.73,0l24.24-24.24c1.03-1.03,1.03-2.7,0-3.73l-1.19-1.19c-1.03-1.03-2.71-1.03-3.73,0l-24.24,24.23c-1.03,1.03-1.03,2.71,0,3.74l1.19,1.19ZM189.88,131.4l1.19-1.19c1.02-1.03,1.02-2.71,0-3.74l-24.24-24.23c-1.03-1.03-2.71-1.03-3.73,0l-1.19,1.19c-1.03,1.03-1.03,2.71,0,3.73l24.24,24.24c1.03,1.03,2.7,1.02,3.73,0ZM40.79,32.29h27.01c1.45,0,2.64-1.19,2.64-2.64v-2.6c0-1.45,0-3.83,0-5.28V2.64c0-1.45-1.19-2.64-2.64-2.64h-1.69c-1.45,0-2.64,1.19-2.64,2.64v20.05c0,1.45-1.19,2.64-2.64,2.64h-20.05c-1.45,0-2.64,1.19-2.64,2.64v1.69c0,1.45,1.19,2.64,2.64,2.64ZM53.24,43.06v1.69c0,1.45,1.19,2.64,2.64,2.64h27.02c1.45,0,2.64-1.19,2.64-2.64v-27.02c0-1.45-1.19-2.64-2.64-2.64h-1.69c-1.45,0-2.64,1.19-2.64,2.64v20.05c0,1.45-1.19,2.64-2.64,2.64h-20.05c-1.45,0-2.64,1.19-2.64,2.64ZM48.56,15.34c1.03,1.03,2.97,1.87,4.33,1.87s2.46-1.11,2.46-2.46-.84-3.3-1.87-4.33L44.71,1.64c-1.03-1.03-2.71-1.03-3.73,0l-1.19,1.19c-1.03,1.03-1.03,2.71,0,3.73l8.77,8.77ZM215.81,137.29l1.19-1.19c1.02-1.03,1.02-2.71,0-3.74l-39.97-39.97c-1.03-1.03-2.71-1.03-3.73,0l-1.19,1.19c-1.03,1.03-1.03,2.71,0,3.73l39.98,39.98c1.03,1.03,2.7,1.02,3.73,0ZM116.09,93.58l-1.19-1.19c-1.03-1.03-2.71-1.03-3.73,0l-39.97,39.97c-1.03,1.03-1.03,2.71,0,3.74l1.19,1.19c1.02,1.03,2.7,1.03,3.73,0l39.98-39.98c1.03-1.03,1.03-2.71,0-3.73ZM68.33,58.15v1.69c0,1.45,1.19,2.64,2.64,2.64h27.01c1.45,0,2.64-1.19,2.64-2.64v-27.02c0-1.45-1.19-2.64-2.64-2.64h-1.69c-1.45,0-2.64,1.19-2.64,2.64v20.05c0,1.45-1.19,2.64-2.64,2.64h-20.05c-1.45,0-2.64,1.19-2.64,2.64Z"/>
</svg>